<?xml version="1.0" encoding="UTF-8" standalone="no"?>
<!-- Created with Inkscape (http://www.inkscape.org/) -->

<svg
   xmlns:dc="http://purl.org/dc/elements/1.1/"
   xmlns:cc="http://creativecommons.org/ns#"
   xmlns:rdf="http://www.w3.org/1999/02/22-rdf-syntax-ns#"
   xmlns:svg="http://www.w3.org/2000/svg"
   xmlns="http://www.w3.org/2000/svg"
   xmlns:xlink="http://www.w3.org/1999/xlink"
   xmlns:sodipodi="http://sodipodi.sourceforge.net/DTD/sodipodi-0.dtd"
   xmlns:inkscape="http://www.inkscape.org/namespaces/inkscape"
   width="744.09448819"
   height="1052.3622047"
   id="svg3367"
   version="1.1"
   inkscape:version="0.48.5 r10040"
   sodipodi:docname="dogui.svg"
   inkscape:export-filename="/home/rmars/dogui.png"
   inkscape:export-xdpi="90"
   inkscape:export-ydpi="90">
  <defs
     id="defs3369">
    <radialGradient
       fx="0"
       fy="0"
       cx="0"
       cy="0"
       r="1"
       gradientUnits="userSpaceOnUse"
       gradientTransform="matrix(953.421,0,0,-679.685,700.333,490.559)"
       spreadMethod="pad"
       id="radialGradient3126">
      <stop
         style="stop-opacity:1;stop-color:#e9e6aa"
         offset="0"
         id="stop3128" />
      <stop
         style="stop-opacity:1;stop-color:#e7c863"
         offset="1"
         id="stop3130" />
    </radialGradient>
    <radialGradient
       r="1"
       fy="0"
       fx="0"
       cy="0"
       cx="0"
       spreadMethod="pad"
       gradientTransform="matrix(119.17763,0,0,84.960625,-431.6706,1088.6122)"
       gradientUnits="userSpaceOnUse"
       id="radialGradient3365"
       xlink:href="#radialGradient3126"
       inkscape:collect="always" />
  </defs>
  <sodipodi:namedview
     id="base"
     pagecolor="#ffffff"
     bordercolor="#666666"
     borderopacity="1.0"
     inkscape:pageopacity="0.0"
     inkscape:pageshadow="2"
     inkscape:zoom="1.4142136"
     inkscape:cx="374.65457"
     inkscape:cy="782.48232"
     inkscape:document-units="px"
     inkscape:current-layer="layer1"
     showgrid="false"
     inkscape:window-width="1916"
     inkscape:window-height="1041"
     inkscape:window-x="0"
     inkscape:window-y="18"
     inkscape:window-maximized="0" />
  <metadata
     id="metadata3372">
    <rdf:RDF>
      <cc:Work
         rdf:about="">
        <dc:format>image/svg+xml</dc:format>
        <dc:type
           rdf:resource="http://purl.org/dc/dcmitype/StillImage" />
        <dc:title></dc:title>
      </cc:Work>
    </rdf:RDF>
  </metadata>
  <g
     inkscape:label="Layer 1"
     inkscape:groupmode="layer"
     id="layer1">
    <path
       inkscape:connector-curvature="0"
       d="m 354.28531,528.82832 c 0,0 -18.7225,-14.8875 -22.41625,-33.6925 0,0 -2.24,10.45 -9.14875,17.66625 l -0.0687,0.0725 c -1.95,2.02125 -4.26875,3.78375 -7.01125,4.98375 0,0 -0.17875,-0.21375 -0.505,-0.61875 -0.2175,-0.27 -0.5,-0.625 -0.8375,-1.05875 -0.16875,-0.21625 -0.3525,-0.45375 -0.5475,-0.70875 -2.1525,-2.80875 -5.845,-7.8975 -9.485,-14.185 -0.33,-0.57125 -0.66125,-1.1525 -0.99,-1.7425 -3.23125,-5.80375 -6.29875,-12.48375 -8.0825,-19.27 -0.7575,-2.88125 -1.2875,-5.7825 -1.49125,-8.64375 -0.001,0.006 -4.70375,15.67125 -14.8875,21.155 0,0 -21.56875,-11.95375 -30.2825,-33.72625 -0.26375,-0.6625 -0.52,-1.33 -0.76,-2.01 -1.55,-4.3875 -2.57125,-9.145 -2.78875,-14.26875 -0.0888,-2.07875 -0.0512,-4.21375 0.14,-6.41 -0.001,0.002 -2.3525,9.40375 -17.2375,18.805 0,0 -6.33625,-5.6875 -12.6625,-19.355 -0.47875,-1.03375 -0.95625,-2.11875 -1.4325,-3.245 -0.51125,-1.21375 -1.01875,-2.49 -1.52125,-3.8125 -0.33875,-0.89125 -0.67375,-1.80875 -1.005,-2.75125 -0.36,-1.02125 -0.71375,-2.07375 -1.0625,-3.15625 -0.4225,-1.31375 -0.83625,-2.66875 -1.23875,-4.0725 -0.42625,-1.48625 -0.84375,-3.005 -1.24125,-4.59625 -0.615,-2.46 -1.19375,-5.04625 -1.7225,-7.76125 -1.325,-6.79 -2.34875,-14.3875 -2.90875,-22.8525 -0.11125,-1.6925 -0.205,-3.42 -0.27875,-5.18375 -0.0387,-0.94375 -0.0662,-1.89125 -0.0838,-2.84125 l -0.002,-0.32125 c -0.365,-22.63125 5.4625,-46.64875 20.2725,-67.1975 -3.0625,-26.325 -6.195,-64.845 -4.055,-100.8275 -10.93625,23.01125 -21.88,49.74875 -31.2075,49.74875 -1.27375,0 -2.51875,-0.5 -3.7275,-1.575 -14.1038,-12.53625 -47.7963,-88.53875 -32.9088,-115.17875 14.61875,-26.15875 58.6975,-67.42625 106.27875,-67.42625 0.87625,0 1.75375,0.015 2.63125,0.0425 32.28875,1.04125 35.71625,13.85 34.385,22.325 16.60125,-4.03875 36.40625,-5.87 59.89125,-5.87 l 0,0 c 23.485,0 43.29125,1.83125 59.8925,5.87 -1.33125,-8.475 2.09625,-21.28375 34.38375,-22.325 0.88125,-0.0275 1.75375,-0.0425 2.63125,-0.0425 47.5775,0 91.6625,41.27 106.28,67.42625 14.88625,26.64 -18.805,102.6425 -32.90875,115.17875 -1.21,1.07625 -2.4525,1.575 -3.7275,1.575 -9.3275,-0.004 -20.2725,-26.73875 -31.2075,-49.74875 2.14,35.9825 -0.9925,74.5025 -4.05625,100.8275 14.815,20.555 20.6425,44.58 20.27375,67.21625 l -0.002,0.29875 c -0.0188,0.95125 -0.045,1.9 -0.085,2.845 -0.0725,1.76375 -0.16625,3.49125 -0.2775,5.18375 -1.06125,16.04 -3.79375,28.94125 -7.07125,39.155 -0.34,1.06125 -0.68625,2.095 -1.0375,3.09875 -0.84375,2.41 -1.71125,4.66375 -2.5925,6.74875 -0.1075,0.25375 -0.21375,0.51 -0.32125,0.76 -6.6725,15.46625 -13.7725,21.84 -13.7725,21.84 -14.885,-9.40125 -17.2375,-18.8025 -17.2375,-18.805 0.19125,2.19625 0.22875,4.33125 0.14,6.41 -1.36125,32.0375 -33.83125,50.005 -33.83125,50.005 -10.18625,-5.485 -14.8875,-21.15375 -14.8875,-21.155 -0.0688,0.96875 -0.1875,1.9425 -0.32625,2.91875 -0.13375,0.93625 -0.295,1.875 -0.48625,2.81375 -0.0437,0.2125 -0.0825,0.42375 -0.13,0.63625 -0.3975,1.825 -0.9,3.64875 -1.48,5.4575 -0.1125,0.34875 -0.22625,0.69875 -0.345,1.04625 -4.5725,13.5 -13.41125,25.91875 -17.28125,30.96875 -0.19625,0.255 -0.37875,0.4925 -0.5475,0.70875 -0.33875,0.43375 -0.62125,0.78875 -0.8375,1.05875 -0.32625,0.405 -0.505,0.61875 -0.505,0.61875 -12.53625,-5.485 -16.23,-22.7225 -16.23,-22.7225 -3.6925,18.805 -22.41625,33.6925 -22.41625,33.6925"
       style="fill:url(#radialGradient3365);fill-opacity:1;fill-rule:nonzero;stroke:none"
       id="path3132" />
    <path
       inkscape:connector-curvature="0"
       d="m 354.28531,281.59582 0,-209.2025 c -85.65625,0 -122.4825,24.28875 -132.66875,91.6725 -10.18625,67.38375 5.9025,159.52125 5.9025,159.52125 l 126.76625,-41.99125"
       style="fill:#cc773c;fill-opacity:1;fill-rule:nonzero;stroke:none"
       id="path3268" />
    <path
       inkscape:connector-curvature="0"
       d="m 291.84031,85.71332 c 0,0 16.74875,-28.2075 -31.83,-29.775 -48.58,-1.56625 -94.02375,40.74375 -108.91125,67.38375 -14.8875,26.64 18.805,102.6425 32.90875,115.17875 14.1025,12.53625 32.86375,-53.28 49.73125,-74.435 16.86875,-21.155 55.62125,-64.9025 58.10125,-78.3525"
       style="fill:#a96231;fill-opacity:1;fill-rule:nonzero;stroke:none"
       id="path3270" />
    <path
       inkscape:connector-curvature="0"
       d="m 354.28531,238.50082 0,273.4525 c 0,0 -18.7225,-14.8875 -22.41625,-33.6925 0,0 -3.6925,17.2375 -16.22875,22.7225 0,0 -20.37125,-24.28875 -21.93875,-46.2275 0,0 -4.70125,15.67 -14.8875,21.155 0,0 -36.825,-20.3725 -33.69125,-56.415 0,0 -2.35125,9.4025 -17.2375,18.805 0,0 -22.7225,-20.37125 -25.07375,-76.785 -2.35,-56.415 33.41375,-123.015 151.47375,-123.015"
       style="fill:#fddf85;fill-opacity:1;fill-rule:nonzero;stroke:none"
       id="path3272" />
    <path
       inkscape:connector-curvature="0"
       d="m 317.20781,185.41707 c 0,8.655 -7.01625,15.67 -15.67125,15.67 -8.655,0 -15.67,-7.015 -15.67,-15.67 0,-8.655 7.015,-15.67125 15.67,-15.67125 8.655,0 15.67125,7.01625 15.67125,15.67125"
       style="fill:#542013;fill-opacity:1;fill-rule:nonzero;stroke:none"
       id="path3276" />
    <path
       inkscape:connector-curvature="0"
       d="m 300.06781,180.32457 c 0,2.27125 -1.84125,4.1125 -4.11375,4.1125 -2.27125,0 -4.11375,-1.84125 -4.11375,-4.1125 0,-2.2725 1.8425,-4.11375 4.11375,-4.11375 2.2725,0 4.11375,1.84125 4.11375,4.11375"
       style="fill:#ffffff;fill-opacity:1;fill-rule:nonzero;stroke:none"
       id="path3278" />
    <path
       inkscape:connector-curvature="0"
       d="m 335.22906,169.74582 c 20.66125,5.09 -21.93875,-37.02125 -52.4975,-32.32 -30.5575,4.70125 -58.76375,32.125 -54.84625,38.785 3.9175,6.66 54.06375,-19.58875 107.34375,-6.465"
       style="fill:#fddf85;fill-opacity:1;fill-rule:nonzero;stroke:none"
       id="path3282" />
    <path
       inkscape:connector-curvature="0"
       d="m 416.73156,85.71332 c 0,0 -16.74875,-28.2075 31.83,-29.775 48.57875,-1.56625 94.02375,40.74375 108.91125,67.38375 14.88625,26.64 -18.805,102.6425 -32.90875,115.17875 -14.10375,12.53625 -32.86375,-53.28 -49.73125,-74.435 -16.86875,-21.155 -55.62125,-64.9025 -58.10125,-78.3525"
       style="fill:#96562b;fill-opacity:1;fill-rule:nonzero;stroke:none"
       id="path3284" />
    <path
       inkscape:connector-curvature="0"
       d="m 354.28531,281.59582 0,-209.2025 c 85.6575,0 122.48375,24.28875 132.67,91.6725 10.185,67.38375 -5.90375,159.52125 -5.90375,159.52125 L 354.28531,281.59582"
       style="fill:#b96b36;fill-opacity:1;fill-rule:nonzero;stroke:none"
       id="path3286" />
    <path
       inkscape:connector-curvature="0"
       d="m 354.28531,238.50082 0,273.4525 c 0,0 18.72375,-14.8875 22.41625,-33.6925 0,0 3.69375,17.2375 16.23,22.7225 0,0 20.37125,-24.28875 21.93875,-46.2275 0,0 4.70125,15.67 14.8875,21.155 0,0 36.825,-20.3725 33.69125,-56.415 0,0 2.35,9.4025 17.2375,18.805 0,0 22.7225,-20.37125 25.0725,-76.785 2.35125,-56.415 -33.4125,-123.015 -151.47375,-123.015"
       style="fill:#fbc95f;fill-opacity:1;fill-rule:nonzero;stroke:none"
       id="path3288" />
    <path
       inkscape:connector-curvature="0"
       d="m 422.70531,185.41707 c 0,8.655 -7.01625,15.67 -15.67,15.67 -8.655,0 -15.67125,-7.015 -15.67125,-15.67 0,-8.655 7.01625,-15.67125 15.67125,-15.67125 8.65375,0 15.67,7.01625 15.67,15.67125"
       style="fill:#41180d;fill-opacity:1;fill-rule:nonzero;stroke:none"
       id="path3292" />
    <path
       inkscape:connector-curvature="0"
       d="m 405.56531,180.32457 c 0,2.27125 -1.84125,4.1125 -4.1125,4.1125 -2.2725,0 -4.11375,-1.84125 -4.11375,-4.1125 0,-2.2725 1.84125,-4.11375 4.11375,-4.11375 2.27125,0 4.1125,1.84125 4.1125,4.11375"
       style="fill:#ffffff;fill-opacity:1;fill-rule:nonzero;stroke:none"
       id="path3294" />
    <path
       inkscape:connector-curvature="0"
       d="m 354.28531,250.15582 0,51.42 c 35.32125,0 42.01375,-24.33625 44.61625,-35.71875 2.6025,-11.38375 -18.59,-15.70125 -44.61625,-15.70125"
       style="fill:#41180d;fill-opacity:1;fill-rule:nonzero;stroke:none"
       id="path3296" />
    <path
       inkscape:connector-curvature="0"
       d="m 373.34281,169.74582 c -20.66125,5.09 21.93875,-37.02125 52.49625,-32.32 30.55875,4.70125 58.765,32.125 54.8475,38.785 -3.9175,6.66 -54.06375,-19.58875 -107.34375,-6.465"
       style="fill:#fbc95f;fill-opacity:1;fill-rule:nonzero;stroke:none"
       id="path3298" />
    <path
       inkscape:connector-curvature="0"
       d="m 354.41062,250.15933 0,51.42 c -35.32,0 -42.0125,-24.33625 -44.615,-35.71875 -2.6025,-11.38375 18.59,-15.70125 44.615,-15.70125"
       style="fill:#542013;fill-opacity:1;fill-rule:nonzero;stroke:none"
       id="path3280" />
  </g>
</svg>
